<?xml version="1.0" encoding="UTF-8" standalone="no"?>
<!-- Created with Inkscape (http://www.inkscape.org/) -->

<svg
   xmlns:dc="http://purl.org/dc/elements/1.1/"
   xmlns:cc="http://creativecommons.org/ns#"
   xmlns:rdf="http://www.w3.org/1999/02/22-rdf-syntax-ns#"
   xmlns:svg="http://www.w3.org/2000/svg"
   xmlns="http://www.w3.org/2000/svg"
   xmlns:xlink="http://www.w3.org/1999/xlink"
   xmlns:sodipodi="http://sodipodi.sourceforge.net/DTD/sodipodi-0.dtd"
   xmlns:inkscape="http://www.inkscape.org/namespaces/inkscape"
   width="960"
   height="445.98425"
   viewBox="0 0 254.00001 118"
   version="1.1"
   id="svg4779"
   inkscape:version="0.92.2 (5c3e80d, 2017-08-06)"
   sodipodi:docname="mountain.svg">
  <defs
     id="defs4773">
    <linearGradient
       inkscape:collect="always"
       id="linearGradient4959">
      <stop
         style="stop-color:#782121;stop-opacity:1;"
         offset="0"
         id="stop4955" />
      <stop
         style="stop-color:#782121;stop-opacity:0;"
         offset="1"
         id="stop4957" />
    </linearGradient>
    <linearGradient
       inkscape:collect="always"
       xlink:href="#linearGradient4959"
       id="linearGradient4961-9"
       x1="-5.789084"
       y1="274.54163"
       x2="-24.220682"
       y2="295.4881"
       gradientUnits="userSpaceOnUse"
       gradientTransform="matrix(3.6063772,-0.0058444,0.01842644,1.2562967,156.52347,75.083262)" />
  </defs>
  <sodipodi:namedview
     id="base"
     pagecolor="#ffffff"
     bordercolor="#666666"
     borderopacity="1.0"
     inkscape:pageopacity="0.0"
     inkscape:pageshadow="2"
     inkscape:zoom="2.108367"
     inkscape:cx="621.42542"
     inkscape:cy="33.991552"
     inkscape:document-units="mm"
     inkscape:current-layer="layer1"
     showgrid="false"
     inkscape:pagecheckerboard="true"
     inkscape:window-width="1366"
     inkscape:window-height="705"
     inkscape:window-x="-8"
     inkscape:window-y="-8"
     inkscape:window-maximized="1"
     units="px"
     width="53mm" />
  <metadata
     id="metadata4776">
    <rdf:RDF>
      <cc:Work
         rdf:about="">
        <dc:format>image/svg+xml</dc:format>
        <dc:type
           rdf:resource="http://purl.org/dc/dcmitype/StillImage" />
        <dc:title></dc:title>
      </cc:Work>
    </rdf:RDF>
  </metadata>
  <g
     inkscape:label="Layer 1"
     inkscape:groupmode="layer"
     id="layer1"
     transform="translate(0,-179)">
    <path
       id="path4789-7"
       transform="matrix(0.26458333,0,0,0.26458333,0,179)"
       style="fill:#ac9393;fill-opacity:1;stroke-width:0.56318271"
       d="M 725.06641,305.03125 487.40625,447.89062 963.60742,448.2168 740.16406,312.89258 c 0.52112,0.41537 1.04283,0.85375 -0.57617,0.61719 -0.22753,-0.034 -0.47239,-0.0542 -0.68359,-0.0977 -2.00992,-0.41537 1.06031,0.0584 -1.39453,-0.39844 -0.17764,-0.13682 -0.36343,-0.27423 -0.53321,-0.41211 -0.0378,-0.0302 0.22536,0.10411 0.17774,0.0762 -0.11339,-0.0665 -0.29116,-0.12035 -0.37696,-0.1914 -0.48468,-0.40135 -0.40078,-0.35602 -0.32617,-0.70313 0.0189,-0.0378 0.0263,-0.0754 0.0527,-0.11132 0.0113,-0.0151 0.10099,-0.0142 0.0957,-0.0293 -0.0488,-0.13795 -0.50875,-0.23673 -0.44336,-0.37696 -0.10998,-0.0559 -0.16678,-0.0917 -0.18945,-0.11328 l -0.002,-0.002 c -0.11762,-0.0293 -0.17957,-0.0428 -0.34179,-0.0859 -0.32282,-0.0549 -0.67843,-0.10353 -0.64063,-0.21093 -0.19767,-0.0934 -0.39416,-0.18632 -0.5918,-0.2793 0.0302,1.1e-4 0.0939,0.0108 0.0879,0 -0.0151,-0.0227 -0.20104,-0.0571 -0.12696,-0.0586 0.1217,-0.002 0.41364,0.0823 0.32422,0.0547 -1.29672,-0.39998 -0.83069,-0.13581 -1.20312,-0.36523 -0.16063,-0.10054 -0.32187,-0.20025 -0.48243,-0.30078 0.0189,-0.0113 0.0702,-0.0238 0.0547,-0.0352 -0.13795,-0.10961 -0.32805,-0.21146 -0.47265,-0.32031 -0.11263,-0.0847 -0.381,-0.15545 -0.36524,-0.24805 0.008,-0.0469 0.26772,0.0259 0.40235,0.041 -0.1527,-0.0438 -1.06706,-0.26034 -1.2168,-0.41602 -0.18784,-0.0378 -0.36926,-0.0753 -0.32617,-0.13086 -0.79888,-0.13266 -1.29557,-0.14808 -1.54883,-0.4707 -0.15118,-0.0416 -0.29678,-0.0862 -0.44531,-0.12891 -0.17575,-0.11452 -0.29017,-0.20025 -0.40821,-0.32422 -1.02799,-0.16252 -1.18846,-0.22094 -1.54687,-0.76757 -0.0302,-0.0457 0.12305,-0.19639 0.13476,-0.20508 -0.0227,-0.008 -0.0398,-0.008 -0.0605,-0.0156 -1.20352,-0.38279 -1.22476,-0.2877 -1.42383,-0.82617 -0.0151,-0.0427 0.015,-0.0839 0.043,-0.12695 -0.32315,-0.29405 -0.46427,-0.59787 -0.74414,-0.89649 z m 10.55664,6.0332 c 0.11455,0.0195 0.24148,0.0375 0.32226,0.0625 0.10779,0.0336 -0.48996,-0.10637 -0.37695,-0.0762 0.0337,0.009 0.0287,0.007 0.0547,0.0137 z m -8.28516,-4.14843 c 0.0151,0.0113 0.0299,0.0256 0.0488,0.0332 0.0767,0.0189 0.13932,0.0684 0.22851,0.0566 0.10319,-0.0151 -0.0804,-0.0422 -0.27734,-0.0898 z m 1.43164,0.9707 c 0.004,0.002 0.008,0.008 0.0156,0.008 0.0692,0.008 0.13915,0.0153 0.35156,0.0508 -0.15496,-0.0227 -0.23982,-0.0386 -0.36719,-0.0586 z m 0.94531,0.49023 c 0.0548,0.0265 0.11046,0.0618 0.1543,0.0762 0.0654,0.0227 0.31419,0.0629 0.24805,0.041 -0.12699,-0.0416 -0.26666,-0.0786 -0.40235,-0.11719 z" />
    <path
       id="path4789"
       transform="matrix(0.26458333,0,0,0.26458333,0,179)"
       style="fill:#de8787;fill-opacity:1;stroke-width:0.56318265"
       d="M 240.86523,304.70508 3.203125,447.56445 479.40625,447.89062 270.08594,321.12109 c -0.13913,0.0331 -0.31425,0.0495 -0.58008,0.0234 -0.87293,-0.0854 -0.43599,0.0156 -1.30469,-0.32226 -0.48255,-0.33789 -0.53323,-0.36811 -1.25,-1.01172 -0.0163,-0.0151 0.0716,-0.0124 0.0586,-0.0312 -0.30414,-0.41394 -0.72754,-0.74375 -1.04883,-1.14453 -0.0272,-0.0263 -0.0582,-0.0402 -0.0859,-0.0645 l -2.31445,-1.40039 c -1.83692,-0.68568 -3.97642,-0.61359 -5.4336,-2.14453 0.0457,0.008 0.0999,0.0529 0.13672,0.0234 0.0283,-0.0227 -0.0546,-0.0493 -0.0879,-0.0625 -0.15632,-0.0612 -0.32081,-0.10233 -0.47851,-0.16016 -0.42379,-0.15458 -0.85618,-0.28544 -1.26563,-0.47461 -1.18585,-0.54826 -2.26687,-1.30842 -3.48437,-1.79492 -1.15131,-0.46005 -1.63836,-1.19553 -1.62696,-1.83789 -0.29232,-0.0477 -0.57267,-0.0959 -0.53906,-0.19141 -0.19759,-0.0933 -0.3942,-0.18632 -0.5918,-0.27929 0.0295,1.1e-4 0.0941,0.0108 0.0879,0 -0.0159,-0.0227 -0.20283,-0.0571 -0.1289,-0.0586 0.12177,-0.002 0.41559,0.0823 0.32617,0.0547 -1.29674,-0.39999 -0.8307,-0.13582 -1.20313,-0.36523 -0.16063,-0.10054 -0.32178,-0.20025 -0.48242,-0.30079 0.0181,-0.0113 0.0681,-0.0238 0.0527,-0.0351 -0.13811,-0.10961 -0.32629,-0.21146 -0.47071,-0.32031 -0.11278,-0.0847 -0.38298,-0.15545 -0.36718,-0.24805 0.008,-0.0469 0.26787,0.0259 0.40234,0.041 -0.15269,-0.0438 -1.06706,-0.26033 -1.2168,-0.41601 -0.18788,-0.0378 -0.36914,-0.0753 -0.32617,-0.13086 -0.79889,-0.13266 -1.29361,-0.14808 -1.54687,-0.4707 -0.151,-0.0416 -0.29688,-0.0862 -0.44532,-0.12891 -0.17578,-0.11452 -0.29227,-0.20025 -0.41015,-0.32422 -1.02801,-0.16252 -1.18651,-0.22094 -1.54492,-0.76758 -0.0302,-0.0457 0.12301,-0.19638 0.13476,-0.20507 -0.0215,-0.008 -0.0397,-0.008 -0.0606,-0.0156 -1.20353,-0.38279 -1.22477,-0.2877 -1.42382,-0.82617 -0.0159,-0.0427 0.0151,-0.0839 0.043,-0.12695 -0.32308,-0.29405 -0.46426,-0.59787 -0.74415,-0.89649 z m 2.26954,1.88476 c 0.0155,0.0113 0.0294,0.0257 0.0488,0.0332 0.0766,0.0189 0.14154,0.0684 0.23047,0.0566 0.10299,-0.0151 -0.0822,-0.0422 -0.27929,-0.0899 z m 1.43359,0.97071 c 0.004,0.002 0.007,0.008 0.0117,0.008 0.069,0.008 0.14092,0.0153 0.35351,0.0508 -0.1543,-0.0226 -0.23926,-0.0387 -0.36523,-0.0586 z m 0.94336,0.49023 c 0.0546,0.0265 0.11233,0.0618 0.15625,0.0762 0.0655,0.0227 0.31415,0.0629 0.24805,0.041 -0.12719,-0.0416 -0.26875,-0.0786 -0.4043,-0.11719 z" />
    <path
       id="path4867"
       transform="matrix(0.26458333,0,0,0.26458333,0,179)"
       style="fill:#e3dedb;stroke-width:0.41938186"
       d="m 240.0918,304.70508 -77.49414,43.63086 151.86718,-0.82617 c -0.14675,-0.34734 -0.15584,-0.62945 -0.11718,-1.25586 0.0117,-0.19011 0.0948,-0.37021 0.10742,-0.56055 0.008,-0.11868 -0.061,0.22923 -0.0918,0.34375 -0.40121,-0.97347 -0.35647,-1.96461 -0.28516,-2.97266 z" />
    <ellipse
       style="fill:#e3dedb;stroke-width:0.19630624"
       id="path4871"
       cx="51.669472"
       cy="274.52264"
       rx="12.7292"
       ry="6.722023"
       transform="matrix(0.99999706,-0.00242302,0.00980932,0.99995189,0,0)" />
    <ellipse
       style="fill:#e3dedb;stroke-width:0.19293953"
       id="path4873"
       cx="71.616592"
       cy="272.54544"
       rx="10.22897"
       ry="4.8310738"
       transform="matrix(0.99999762,-0.00218162,0.01089464,0.99994065,0,0)" />
    <path
       id="path4789-9"
       transform="matrix(0.26458333,0,0,0.26458333,0,179)"
       style="fill:url(#linearGradient4961-9);fill-opacity:1;stroke-width:0.56318271"
       d="M 493.24219,304.09375 255.58008,446.95312 731.78125,447.2793 508.33789,311.95508 c 0.52112,0.41537 1.04283,0.8557 -0.57617,0.61914 -0.22753,-0.034 -0.47044,-0.0562 -0.68164,-0.0996 -2.00992,-0.41537 1.06031,0.0584 -1.39453,-0.39844 -0.17764,-0.13682 -0.36538,-0.27423 -0.53516,-0.41211 -0.0378,-0.0302 0.22536,0.10411 0.17773,0.0762 -0.11337,-0.0665 -0.28958,-0.12035 -0.375,-0.1914 -0.48467,-0.40135 -0.40269,-0.35602 -0.32812,-0.70313 0.0189,-0.0378 0.0282,-0.0754 0.0547,-0.11132 0.0113,-0.0151 0.0991,-0.0142 0.0937,-0.0293 -0.0488,-0.13795 -0.50875,-0.23673 -0.44336,-0.37696 -0.10999,-0.0559 -0.16482,-0.0917 -0.1875,-0.11328 l -0.002,-0.002 c -0.11109,-0.0277 -0.18429,-0.0452 -0.32421,-0.082 -0.32723,-0.0565 -0.69874,-0.10515 -0.66016,-0.21484 -0.19767,-0.0934 -0.3942,-0.18632 -0.5918,-0.2793 0.0302,1.1e-4 0.0939,0.0108 0.0879,0 -0.0151,-0.0227 -0.20103,-0.0571 -0.12695,-0.0586 0.1217,-0.002 0.41364,0.0823 0.32422,0.0547 -1.29676,-0.39998 -0.82874,-0.13581 -1.20117,-0.36523 -0.16063,-0.10054 -0.32382,-0.20025 -0.48438,-0.30078 0.0189,-0.0113 0.0702,-0.0238 0.0547,-0.0352 -0.13795,-0.10961 -0.32614,-0.21146 -0.4707,-0.32031 -0.11263,-0.0847 -0.38295,-0.15545 -0.36719,-0.24805 0.008,-0.0469 0.26772,0.0259 0.40234,0.041 -0.15269,-0.0438 -1.06705,-0.26034 -1.21679,-0.41602 -0.18785,-0.0378 -0.36926,-0.0753 -0.32618,-0.13086 -0.79887,-0.13266 -1.29556,-0.14808 -1.54882,-0.4707 -0.15118,-0.0416 -0.29678,-0.0842 -0.44532,-0.12695 -0.17574,-0.11452 -0.29016,-0.20221 -0.4082,-0.32618 -1.02799,-0.16252 -1.18846,-0.22094 -1.54687,-0.76757 -0.0302,-0.0457 0.125,-0.19639 0.13671,-0.20508 -0.0227,-0.008 -0.0398,-0.008 -0.0605,-0.0156 -1.20356,-0.38279 -1.22672,-0.2877 -1.42578,-0.82617 -0.0151,-0.0427 0.015,-0.0839 0.043,-0.12695 -0.32315,-0.29405 -0.46228,-0.59787 -0.74219,-0.89649 z m 10.57422,6.03711 c 0.10686,0.0185 0.22681,0.0351 0.30273,0.0586 0.10783,0.0336 -0.48996,-0.10637 -0.37695,-0.0762 0.0453,0.0124 0.0423,0.009 0.0742,0.0176 z m -8.30469,-4.15234 c 0.0151,0.0113 0.0299,0.0276 0.0488,0.0351 0.0767,0.0189 0.13932,0.0684 0.22851,0.0566 0.10281,-0.0151 -0.0804,-0.0442 -0.27734,-0.0918 z m 1.43359,0.9707 c 0.003,0.003 0.007,0.008 0.0137,0.008 0.0692,0.008 0.13916,0.0153 0.35157,0.0508 -0.15496,-0.0227 -0.23787,-0.0386 -0.36524,-0.0586 z m 0.94336,0.49023 c 0.0544,0.0265 0.11046,0.0618 0.1543,0.0762 0.0654,0.0227 0.31614,0.0629 0.25,0.041 -0.12737,-0.0416 -0.26861,-0.0786 -0.4043,-0.11719 z" />
    <path
       sodipodi:type="star"
       style="fill:#e3dbdb;stroke-width:0.26458332"
       id="path4867-8"
       sodipodi:sides="3"
       sodipodi:cx="90.089874"
       sodipodi:cy="214.44904"
       sodipodi:r1="32.541092"
       sodipodi:r2="16.270548"
       sodipodi:arg1="2.6051572"
       sodipodi:arg2="3.6523547"
       inkscape:flatsided="true"
       inkscape:rounded="0"
       inkscape:randomized="0"
       d="M 62.119638,231.07999 89.672166,181.91062 118.47782,230.3565 Z"
       inkscape:transform-center-x="-0.21969699"
       inkscape:transform-center-y="-1.8472072"
       transform="matrix(0.7510495,-0.00108238,0.00386234,0.23417495,123.78987,217.20413)" />
    <ellipse
       style="fill:#e3dbdb;stroke-width:0.21528634"
       id="path4871-4"
       cx="197.83867"
       cy="275.0766"
       rx="14.842755"
       ry="6.9334817"
       transform="matrix(0.9999977,-0.00214333,0.01108923,0.99993851,0,0)" />
    <ellipse
       style="fill:#e3dbdb;stroke-width:0.17224081"
       id="path4873-2"
       cx="176.07948"
       cy="273.89801"
       rx="9.383543"
       ry="4.1969948"
       transform="matrix(0.99999787,-0.00206603,0.01150412,0.99993383,0,0)" />
    <path
       id="path4867-6"
       transform="matrix(0.26458333,0,0,0.26458333,0,179)"
       style="fill:#ffffff;stroke-width:0.41938186"
       d="m 493.24219,304.09375 -77.49414,43.63086 158.30664,-0.86133 c -0.29607,-0.22785 -0.65769,-0.40928 -0.98242,-0.6289 -0.19723,-0.0562 -0.41251,-0.19089 -0.60157,-0.2461 -0.0763,-0.0227 -0.13213,-0.0893 -0.20508,-0.12109 -0.0227,-0.0113 -0.0674,0.0683 -0.0625,0.043 0.007,-0.0339 0.0145,-0.0677 0.0215,-0.10157 -0.0508,0.0428 -0.0681,0.0495 -0.12305,0.0977 0.0183,-0.18871 0.0212,-0.38085 0.0274,-0.57227 -0.15931,-0.004 -0.29032,-0.009 -0.39649,-0.041 0.005,0.0932 0.007,0.19229 -0.0254,0.3418 -0.034,0.16214 -0.30653,-0.17619 -0.37305,-0.32813 -0.0484,-0.11 -0.0599,-0.19908 -0.0859,-0.29687 -0.29072,0.16852 -0.19635,0.0735 0,-0.002 -0.0135,-0.0507 -0.0164,-0.0868 -0.0274,-0.13281 -0.0234,-0.027 -0.037,-0.0359 -0.0625,-0.0664 -0.0139,-0.004 -0.0292,-0.003 -0.043,-0.008 -0.033,-0.0116 -0.10212,-0.0663 -0.14453,-0.0879 -0.006,-0.002 -0.0125,-0.004 -0.0156,-0.01 -0.33777,-0.17613 -0.87978,-0.58 -1.04297,-0.8125 -0.0227,-0.0302 0.0767,0.0139 0.11523,0.0215 -0.009,-0.006 -0.0262,-0.0197 -0.0391,-0.0293 l -0.0156,-0.008 c -0.1181,-0.0292 -0.25784,-0.0784 -0.34375,-0.0957 -0.52196,-0.10507 -1.07464,-0.3809 -1.55079,-0.58594 -0.46151,-0.19872 -0.71861,-0.46653 -0.83984,-0.73633 z m 78.06836,40.875 c -0.0135,0.009 -0.0461,0.0321 -0.0547,0.0371 0.0228,-0.009 0.0481,-0.009 0.0723,-0.0156 -0.006,-0.007 -0.0112,-0.0147 -0.0176,-0.0215 z" />
    <ellipse
       style="fill:#ffffff;stroke-width:0.19433907"
       id="path4871-44"
       cx="129.64186"
       cy="274.36334"
       rx="12.095137"
       ry="6.9333386"
       transform="matrix(0.99999654,-0.00263023,0.00903662,0.99995917,0,0)" />
    <ellipse
       style="fill:#ffffff;stroke-width:0.17224081"
       id="path4873-1"
       cx="114.74636"
       cy="273.52328"
       rx="9.383543"
       ry="4.1969948"
       transform="matrix(0.99999787,-0.00206603,0.01150412,0.99993383,0,0)" />
    <path
       id="path4875-4"
       transform="matrix(0.26458333,0,0,0.26458333,0,179)"
       style="fill:#ffffff;stroke-width:0.76197863"
       d="m 552.37695,342.35352 a 16.588917,29.999968 89.978281 0 0 -29.86133,16.67382 16.588917,29.999968 89.978281 0 0 30.13868,16.50391 16.588917,29.999968 89.978281 0 0 29.86132,-16.67383 16.588917,29.999968 89.978281 0 0 -30.13867,-16.5039 z" />
    <path
       style="opacity:1;fill:#e3dedb;fill-opacity:1;stroke:none;stroke-width:0.26458332;stroke-opacity:1"
       id="path391"
       d="m 187.68598,270.30984 c 0.31148,-0.13673 0.64028,-0.21881 0.97545,-0.26967 1.28208,0.028 -0.48432,1.40991 -0.741,1.72134 -0.22314,0.0232 -0.44737,0.0279 -0.6715,0.0306 -0.18386,0.0133 -0.37249,-0.018 -0.55554,0.008 1.05618,-1.61553 0.66265,-1.77877 1.52099,-1.32906 0.22555,0.11347 0.45112,0.22994 0.67126,0.3539 0.18769,0.12847 0.41399,0.13453 0.62413,0.19589 0.75146,0.30463 -0.73031,1.30057 -0.99653,1.62861 -0.0136,0.0167 -0.28016,0.009 -0.35607,0.0106 -0.29838,0.008 -0.59685,0.009 -0.89531,0.01 -0.23664,0.004 -0.4657,-0.0672 -0.69966,-0.097 -0.24846,-0.0123 -0.4001,-0.0182 -0.5635,-0.21397 1.28292,-1.68179 0.62367,-1.5273 1.49042,-1.4225 0.16737,0.0202 0.33131,0.0343 0.49728,0.0652 0.3303,0.0758 0.66542,0.14468 0.99124,0.23901 0.27709,0.10028 0.53487,0.24281 0.79958,0.37025 0.22479,0.0789 0.4536,0.14922 0.68366,0.21281 0.22247,0.0921 0.45695,0.14611 0.68719,0.21458 0,0 -1.08812,1.50563 -1.08812,1.50563 v 0 c -0.23023,-0.0684 -0.46421,-0.1237 -0.68847,-0.2111 -0.23715,-0.0725 -0.47727,-0.13969 -0.70554,-0.23659 -0.25327,-0.1254 -0.5029,-0.26073 -0.77133,-0.35198 -0.32143,-0.0868 -0.64505,-0.17228 -0.97279,-0.23057 -1.12697,-0.16578 -1.03109,0.33786 0.41623,-1.47128 -0.18987,-0.11314 -0.0973,-0.0458 -0.039,-0.0325 0.10855,0.0249 0.22074,0.0198 0.33015,0.0388 0.22453,0.0339 0.4464,0.0976 0.6753,0.0867 0.2954,2.7e-4 0.59113,0.002 0.88611,-0.0162 0.0543,-0.005 0.18064,-0.0143 0.23928,-0.0316 0.0236,-0.007 0.0801,-0.0523 0.0664,-0.0319 -1.01139,1.49478 -0.73746,1.62489 -1.07321,1.47698 -0.22754,-0.0555 -0.46,-0.0921 -0.65938,-0.22633 -0.21764,-0.12281 -0.44019,-0.23928 -0.66662,-0.34492 -0.84354,-0.40186 -0.53929,-0.0688 0.65592,-1.71392 0.17788,0.018 0.35837,0.005 0.53717,0.005 0.20064,-0.006 0.42474,0.006 0.60671,-0.088 -0.37132,0.47384 -0.7678,0.92899 -1.11393,1.42152 -0.0219,0.0312 0.13381,0.0593 0.11077,0.0289 -0.0474,-0.0626 -0.19258,-0.0248 -0.24764,-0.0267 -0.32443,0.0597 -0.64308,0.15008 -0.93461,0.30851 0,0 0.97449,-1.58752 0.97449,-1.58752 z"
       inkscape:connector-curvature="0" />
  </g>
</svg>
