<?xml version="1.0" encoding="UTF-8" standalone="no"?>
<!-- Created with Inkscape (http://www.inkscape.org/) -->

<svg
   xmlns:dc="http://purl.org/dc/elements/1.1/"
   xmlns:cc="http://creativecommons.org/ns#"
   xmlns:rdf="http://www.w3.org/1999/02/22-rdf-syntax-ns#"
   xmlns:svg="http://www.w3.org/2000/svg"
   xmlns="http://www.w3.org/2000/svg"
   xmlns:xlink="http://www.w3.org/1999/xlink"
   xmlns:sodipodi="http://sodipodi.sourceforge.net/DTD/sodipodi-0.dtd"
   xmlns:inkscape="http://www.inkscape.org/namespaces/inkscape"
   width="960"
   height="445.98425"
   viewBox="0 0 254.00001 118"
   version="1.1"
   id="svg4779"
   inkscape:version="0.92.2 (5c3e80d, 2017-08-06)"
   sodipodi:docname="mountain-back.svg">
  <defs
     id="defs4773">
    <linearGradient
       inkscape:collect="always"
       id="linearGradient4959">
      <stop
         style="stop-color:#782121;stop-opacity:1;"
         offset="0"
         id="stop4955" />
      <stop
         style="stop-color:#782121;stop-opacity:0;"
         offset="1"
         id="stop4957" />
    </linearGradient>
    <linearGradient
       inkscape:collect="always"
       xlink:href="#linearGradient4959"
       id="linearGradient4961-9"
       x1="-5.789084"
       y1="274.54163"
       x2="-24.220682"
       y2="295.4881"
       gradientUnits="userSpaceOnUse"
       gradientTransform="matrix(0.95418729,-0.00215482,0.00487533,0.46319392,41.413501,175.02246)" />
  </defs>
  <sodipodi:namedview
     id="base"
     pagecolor="#ffffff"
     bordercolor="#666666"
     borderopacity="1.0"
     inkscape:pageopacity="0.0"
     inkscape:pageshadow="2"
     inkscape:zoom="0.7454203"
     inkscape:cx="513.22817"
     inkscape:cy="31.815147"
     inkscape:document-units="mm"
     inkscape:current-layer="layer1"
     showgrid="false"
     inkscape:pagecheckerboard="true"
     inkscape:window-width="1366"
     inkscape:window-height="705"
     inkscape:window-x="-8"
     inkscape:window-y="-8"
     inkscape:window-maximized="1"
     units="px"
     width="53mm" />
  <metadata
     id="metadata4776">
    <rdf:RDF>
      <cc:Work
         rdf:about="">
        <dc:format>image/svg+xml</dc:format>
        <dc:type
           rdf:resource="http://purl.org/dc/dcmitype/StillImage" />
        <dc:title></dc:title>
      </cc:Work>
    </rdf:RDF>
  </metadata>
  <g
     inkscape:label="Layer 1"
     inkscape:groupmode="layer"
     id="layer1"
     transform="translate(0,-179)">
    <path
       id="path4789-7"
       style="fill:#ac9393;fill-opacity:1;stroke-width:0.19110036"
       d="m 203.17772,259.70618 -74.21815,52.67195 148.71138,0.12026 -69.77843,-49.89375 c 0.16274,0.15315 0.32566,0.31478 -0.17993,0.22756 -0.0711,-0.0125 -0.14752,-0.0199 -0.21348,-0.036 -0.62767,-0.15315 0.33112,0.0215 -0.43549,-0.14691 -0.0555,-0.0504 -0.1135,-0.10116 -0.16652,-0.15194 -0.0118,-0.0112 0.0704,0.0383 0.0555,0.0281 -0.0354,-0.0245 -0.0909,-0.0443 -0.11772,-0.0705 -0.15136,-0.14797 -0.12516,-0.13126 -0.10186,-0.25924 0.006,-0.0139 0.008,-0.0277 0.0165,-0.041 0.004,-0.006 0.0315,-0.006 0.0299,-0.0111 -0.0152,-0.0509 -0.15888,-0.0872 -0.13846,-0.13893 -0.0343,-0.0206 -0.0521,-0.0339 -0.0592,-0.0418 l -6.3e-4,-7.4e-4 c -0.0367,-0.0112 -0.0561,-0.0157 -0.10673,-0.0316 -0.10082,-0.0202 -0.21187,-0.0382 -0.20006,-0.0778 -0.0617,-0.0344 -0.1231,-0.0687 -0.18482,-0.10298 0.009,4e-5 0.0293,0.004 0.0275,0 -0.005,-0.008 -0.0628,-0.021 -0.0396,-0.0216 0.038,-7.3e-4 0.12917,0.0304 0.10125,0.0202 -0.40495,-0.14746 -0.25942,-0.05 -0.37572,-0.13461 -0.0502,-0.0371 -0.10052,-0.0739 -0.15066,-0.11093 0.006,-0.004 0.0219,-0.008 0.0171,-0.0125 -0.0431,-0.0404 -0.10244,-0.0779 -0.1476,-0.11803 -0.0352,-0.0312 -0.11898,-0.0573 -0.11406,-0.0914 0.002,-0.0173 0.0836,0.01 0.12565,0.0152 -0.0477,-0.0162 -0.33323,-0.096 -0.37999,-0.1534 -0.0587,-0.0139 -0.11532,-0.0277 -0.10186,-0.0482 -0.24948,-0.0489 -0.40459,-0.0546 -0.48368,-0.17355 -0.0472,-0.0153 -0.0927,-0.0318 -0.13906,-0.0475 -0.0549,-0.0422 -0.0906,-0.0739 -0.12748,-0.11956 -0.32103,-0.0599 -0.37114,-0.0815 -0.48307,-0.28301 -0.009,-0.0169 0.0384,-0.0725 0.0421,-0.0757 -0.007,-0.003 -0.0124,-0.003 -0.0189,-0.006 -0.37584,-0.14113 -0.38248,-0.10605 -0.44464,-0.30462 -0.005,-0.0158 0.005,-0.0309 0.0134,-0.0468 -0.10092,-0.10842 -0.14499,-0.22044 -0.23239,-0.33054 z m 3.2967,2.22444 c 0.0358,0.007 0.0754,0.0139 0.10064,0.023 0.0337,0.0125 -0.15301,-0.0392 -0.11772,-0.0282 0.0105,0.003 0.009,0.003 0.0171,0.006 z m -2.58735,-1.52953 c 0.005,0.004 0.009,0.01 0.0152,0.0125 0.024,0.007 0.0435,0.0252 0.0714,0.0209 0.0322,-0.006 -0.0251,-0.0156 -0.0866,-0.0332 z m 0.44709,0.3579 c 0.001,7.3e-4 0.002,0.003 0.005,0.003 0.0216,0.003 0.0434,0.006 0.10979,0.0187 -0.0484,-0.008 -0.0749,-0.0142 -0.11467,-0.0216 z m 0.2952,0.18075 c 0.0171,0.01 0.0345,0.0227 0.0482,0.0282 0.0204,0.008 0.0981,0.0231 0.0775,0.0152 -0.0396,-0.0153 -0.0833,-0.029 -0.12565,-0.0432 z"
       inkscape:connector-curvature="0" />
    <path
       id="path4789"
       style="fill:#de8787;fill-opacity:1;stroke-width:0.18873788"
       d="m 52.171915,259.61988 -74.395857,51.2554 149.066842,0.11703 -65.523966,-45.48265 c -0.04355,0.0122 -0.09837,0.0178 -0.181583,0.008 -0.273255,-0.0307 -0.136479,0.005 -0.40841,-0.11567 -0.151054,-0.12123 -0.166918,-0.13208 -0.39129,-0.36298 -0.0051,-0.005 0.02242,-0.004 0.01834,-0.0109 -0.0952,-0.14851 -0.227743,-0.26684 -0.328316,-0.41063 -0.0085,-0.009 -0.01822,-0.0144 -0.02689,-0.0232 l -0.724497,-0.50244 c -0.575015,-0.24601 -1.244747,-0.22015 -1.700892,-0.76942 0.01431,0.003 0.03127,0.019 0.0428,0.008 0.0089,-0.008 -0.01709,-0.0176 -0.02752,-0.0224 -0.04893,-0.022 -0.100428,-0.0367 -0.149789,-0.0575 -0.13266,-0.0555 -0.268012,-0.10238 -0.396182,-0.17029 -0.37121,-0.19671 -0.709604,-0.46943 -1.09072,-0.64398 -0.360397,-0.16506 -0.51286,-0.42894 -0.509291,-0.65941 -0.0915,-0.0171 -0.179264,-0.0344 -0.168743,-0.0686 -0.06185,-0.0335 -0.123397,-0.0669 -0.185252,-0.10021 0.0092,4e-5 0.02945,0.004 0.02752,0 -0.005,-0.008 -0.06349,-0.0205 -0.04035,-0.021 0.03812,-7.2e-4 0.130093,0.0296 0.102104,0.0197 -0.405922,-0.14351 -0.260037,-0.0487 -0.376619,-0.13099 -0.05029,-0.0361 -0.100728,-0.0719 -0.151013,-0.10794 0.0057,-0.004 0.02132,-0.008 0.0165,-0.0122 -0.04323,-0.0393 -0.102135,-0.0758 -0.147347,-0.11485 -0.03531,-0.0304 -0.119886,-0.0557 -0.11494,-0.089 0.0025,-0.0168 0.08386,0.009 0.125946,0.0148 -0.04779,-0.0157 -0.334024,-0.0934 -0.380898,-0.14925 -0.05881,-0.0136 -0.115552,-0.027 -0.102103,-0.0469 -0.250079,-0.0476 -0.404941,-0.0532 -0.48422,-0.16888 -0.04727,-0.0149 -0.09294,-0.0309 -0.1394,-0.0462 -0.05502,-0.0411 -0.09149,-0.0719 -0.12839,-0.11635 -0.321799,-0.0583 -0.371415,-0.0792 -0.483609,-0.2754 -0.0094,-0.0164 0.0385,-0.0704 0.04219,-0.0736 -0.0067,-0.003 -0.01242,-0.003 -0.01897,-0.005 -0.376744,-0.13734 -0.383392,-0.1032 -0.445701,-0.29642 -0.005,-0.0153 0.0048,-0.0301 0.01346,-0.0456 -0.101131,-0.1055 -0.145328,-0.21451 -0.232943,-0.32165 z m 0.710439,0.67622 c 0.0049,0.004 0.0092,0.01 0.01528,0.0122 0.02398,0.007 0.04431,0.0245 0.07214,0.0203 0.03224,-0.005 -0.02573,-0.0152 -0.08742,-0.0323 z m 0.44876,0.34827 c 0.0012,7.2e-4 0.0022,0.003 0.0036,0.003 0.0216,0.003 0.04411,0.005 0.11066,0.0182 -0.0483,-0.008 -0.0749,-0.0138 -0.114329,-0.021 z m 0.295302,0.17589 c 0.01709,0.009 0.03516,0.0221 0.04891,0.0274 0.0205,0.008 0.09834,0.0225 0.07765,0.0148 -0.03982,-0.0149 -0.08413,-0.0282 -0.126559,-0.042 z"
       inkscape:connector-curvature="0" />
    <path
       id="path4867"
       style="fill:#e3dedb;stroke-width:0.1054327"
       d="m 52.171915,259.61988 -18.51134,11.544 36.277129,-0.21859 c -0.03505,-0.0919 -0.03722,-0.16654 -0.02799,-0.33228 0.0028,-0.0503 0.02264,-0.0979 0.02566,-0.14831 0.0019,-0.0314 -0.01457,0.0607 -0.02193,0.091 -0.09584,-0.25757 -0.08516,-0.51981 -0.06812,-0.78652 z"
       inkscape:connector-curvature="0" />
    <ellipse
       style="fill:#e3dedb;stroke-width:0.19630624"
       id="path4871"
       cx="40.301022"
       cy="275.55997"
       rx="12.7292"
       ry="6.722023"
       transform="matrix(0.99999706,-0.00242302,0.00980932,0.99995189,0,0)" />
    <ellipse
       style="fill:#e3dedb;stroke-width:0.19293953"
       id="path4873"
       cx="59.186043"
       cy="273.22824"
       rx="10.22897"
       ry="4.8310738"
       transform="matrix(0.99999762,-0.00218162,0.01089464,0.99994065,0,0)" />
    <path
       id="path4789-9"
       style="fill:url(#linearGradient4961-9);fill-opacity:1;stroke-width:0.17590001"
       d="m 130.50366,259.45814 -62.881431,52.67194 125.994891,0.12026 -59.11939,-49.89375 c 0.13788,0.15315 0.27592,0.3155 -0.15244,0.22828 -0.0602,-0.0125 -0.12447,-0.0207 -0.18035,-0.0367 -0.5318,-0.15315 0.28054,0.0215 -0.36897,-0.14691 -0.047,-0.0504 -0.0967,-0.10111 -0.1416,-0.15194 -0.01,-0.0111 0.0596,0.0384 0.047,0.0281 -0.03,-0.0245 -0.0766,-0.0444 -0.0992,-0.0706 -0.12824,-0.14797 -0.10655,-0.13126 -0.0868,-0.25924 0.005,-0.0139 0.007,-0.0278 0.0145,-0.041 0.003,-0.006 0.0262,-0.005 0.0248,-0.0108 -0.0129,-0.0509 -0.13461,-0.0873 -0.11731,-0.13899 -0.0291,-0.0206 -0.0436,-0.0338 -0.0496,-0.0418 l -5.3e-4,-7.3e-4 c -0.0294,-0.0102 -0.0488,-0.0167 -0.0858,-0.0302 -0.0866,-0.0208 -0.18487,-0.0388 -0.17467,-0.0792 -0.0523,-0.0344 -0.10429,-0.0687 -0.15658,-0.10297 0.008,4e-5 0.0249,0.004 0.0233,0 -0.004,-0.008 -0.0532,-0.0211 -0.0336,-0.0216 0.0322,-7.4e-4 0.10944,0.0303 0.0858,0.0202 -0.34311,-0.14747 -0.21928,-0.0501 -0.31781,-0.13466 -0.0425,-0.0371 -0.0857,-0.0738 -0.12816,-0.1109 0.005,-0.004 0.0186,-0.009 0.0145,-0.013 -0.0365,-0.0404 -0.0863,-0.078 -0.12454,-0.11809 -0.0298,-0.0312 -0.10132,-0.0573 -0.0971,-0.0915 0.002,-0.0173 0.0708,0.01 0.10645,0.0151 -0.0404,-0.0161 -0.28232,-0.096 -0.32194,-0.15339 -0.0497,-0.0139 -0.0977,-0.0278 -0.0863,-0.0482 -0.21137,-0.0489 -0.34279,-0.0546 -0.4098,-0.17354 -0.04,-0.0153 -0.0785,-0.031 -0.11782,-0.0468 -0.0465,-0.0422 -0.0768,-0.0745 -0.108,-0.12026 -0.27199,-0.0599 -0.31445,-0.0815 -0.40928,-0.283 -0.008,-0.0169 0.0331,-0.0724 0.0362,-0.0756 -0.006,-0.003 -0.0105,-0.003 -0.016,-0.006 -0.31845,-0.14113 -0.32457,-0.10607 -0.37724,-0.3046 -0.004,-0.0158 0.004,-0.0309 0.0114,-0.0468 -0.0855,-0.10842 -0.12231,-0.22043 -0.19637,-0.33053 z m 2.79776,2.22587 c 0.0283,0.007 0.06,0.0129 0.0801,0.0216 0.0285,0.0124 -0.12963,-0.0392 -0.0997,-0.0281 0.012,0.005 0.0112,0.003 0.0196,0.006 z m -2.19728,-1.53096 c 0.004,0.004 0.008,0.0102 0.0129,0.0129 0.0203,0.007 0.0369,0.0252 0.0605,0.0209 0.0272,-0.006 -0.0213,-0.0163 -0.0734,-0.0339 z m 0.3793,0.35789 c 8e-4,10e-4 0.002,0.003 0.004,0.003 0.0183,0.003 0.0368,0.006 0.093,0.0187 -0.041,-0.008 -0.0629,-0.0142 -0.0966,-0.0216 z m 0.2496,0.18075 c 0.0144,0.01 0.0292,0.0228 0.0408,0.0281 0.0173,0.008 0.0836,0.0232 0.0661,0.0151 -0.0337,-0.0153 -0.0711,-0.029 -0.10697,-0.0432 z"
       inkscape:connector-curvature="0" />
    <path
       sodipodi:type="star"
       style="fill:#e3dbdb;stroke-width:0.26458332"
       id="path4867-8"
       sodipodi:sides="3"
       sodipodi:cx="90.089874"
       sodipodi:cy="214.44904"
       sodipodi:r1="32.541092"
       sodipodi:r2="16.270548"
       sodipodi:arg1="2.6051572"
       sodipodi:arg2="3.6523547"
       inkscape:flatsided="true"
       inkscape:rounded="0"
       inkscape:randomized="0"
       d="M 62.119638,231.07999 89.672166,181.91062 118.47782,230.3565 Z"
       inkscape:transform-center-x="-0.20127638"
       inkscape:transform-center-y="-1.8472614"
       transform="matrix(0.6880651,-0.0010788,0.00353844,0.23417497,140.83375,217.204)" />
    <ellipse
       style="fill:#e3dbdb;stroke-width:0.21528634"
       id="path4871-4"
       cx="207.06705"
       cy="275.09637"
       rx="14.842755"
       ry="6.9334817"
       transform="matrix(0.9999977,-0.00214333,0.01108923,0.99993851,0,0)" />
    <ellipse
       style="fill:#e3dbdb;stroke-width:0.17224081"
       id="path4873-2"
       cx="189.92204"
       cy="273.92661"
       rx="9.383543"
       ry="4.1969948"
       transform="matrix(0.99999787,-0.00206603,0.01150412,0.99993383,0,0)" />
    <path
       id="path4867-6"
       style="fill:#ffffff;stroke-width:0.09582427"
       d="m 130.50366,259.45814 -15.29108,11.544 31.23694,-0.22789 c -0.0584,-0.0603 -0.12978,-0.10829 -0.19386,-0.1664 -0.039,-0.0149 -0.0814,-0.0505 -0.1187,-0.0651 -0.015,-0.006 -0.0261,-0.0236 -0.0405,-0.032 -0.004,-0.003 -0.0132,0.0181 -0.0123,0.0114 0.002,-0.009 0.003,-0.0179 0.004,-0.0269 -0.01,0.0113 -0.0134,0.0131 -0.0243,0.0259 0.003,-0.0499 0.004,-0.10077 0.005,-0.15141 -0.0314,-10e-4 -0.0572,-0.002 -0.0783,-0.0108 7.4e-4,0.0247 0.002,0.0509 -0.005,0.0904 -0.007,0.0429 -0.0605,-0.0466 -0.0736,-0.0868 -0.01,-0.0291 -0.0118,-0.0527 -0.0169,-0.0786 -0.0573,0.0446 -0.0388,0.0195 0,-5.3e-4 -0.003,-0.0134 -0.003,-0.023 -0.005,-0.0351 -0.004,-0.007 -0.008,-0.01 -0.0123,-0.0176 -0.003,-10e-4 -0.006,-7.9e-4 -0.009,-0.002 -0.007,-0.003 -0.0202,-0.0175 -0.0285,-0.0233 -0.002,-5.3e-4 -0.003,-10e-4 -0.003,-0.003 -0.0666,-0.0466 -0.1736,-0.15345 -0.2058,-0.21497 -0.004,-0.008 0.0151,0.004 0.0227,0.006 -0.002,-0.002 -0.005,-0.005 -0.008,-0.008 l -0.003,-0.002 c -0.0232,-0.008 -0.0508,-0.0207 -0.0678,-0.0253 -0.10298,-0.0278 -0.21204,-0.10078 -0.306,-0.15503 -0.0911,-0.0526 -0.14179,-0.12344 -0.16571,-0.19482 z m 15.40438,10.81485 c -0.003,0.002 -0.009,0.008 -0.0109,0.01 0.004,-0.002 0.009,-0.002 0.0143,-0.004 -0.002,-0.002 -0.003,-0.004 -0.003,-0.006 z"
       inkscape:connector-curvature="0" />
    <ellipse
       style="fill:#ffffff;stroke-width:0.17640118"
       id="path4871-44"
       cx="127.94843"
       cy="274.42722"
       rx="9.9655027"
       ry="6.9332476"
       transform="matrix(0.9999949,-0.00319231,0.0074456,0.99997228,0,0)" />
    <ellipse
       style="fill:#ffffff;stroke-width:0.14957319"
       id="path4873-1"
       cx="119.24638"
       cy="273.60507"
       rx="7.0764365"
       ry="4.1968751"
       transform="matrix(0.99999625,-0.00273961,0.00867587,0.99996236,0,0)" />
    <path
       id="path4875-4"
       style="fill:#ffffff;stroke-width:0.18268871"
       d="m 141.38233,269.07912 a 4.3891507,6.5177275 89.9664 0 0 -6.4876,4.41162 4.3891507,6.5177275 89.9664 0 0 6.54786,4.36666 4.3891507,6.5177275 89.9664 0 0 6.48761,-4.41162 4.3891507,6.5177275 89.9664 0 0 -6.54787,-4.36666 z"
       inkscape:connector-curvature="0" />
    <path
       style="opacity:1;fill:#e3dedb;fill-opacity:1;stroke:none;stroke-width:0.26458332;stroke-opacity:1"
       id="path391"
       d="m 275.35743,246.17357 c 0.31148,-0.13673 0.64028,-0.21881 0.97545,-0.26967 1.28208,0.028 -0.48432,1.40991 -0.741,1.72134 -0.22314,0.0232 -0.44737,0.0279 -0.6715,0.0306 -0.18386,0.0133 -0.37249,-0.018 -0.55554,0.008 1.05618,-1.61553 0.66265,-1.77877 1.52099,-1.32906 0.22555,0.11347 0.45112,0.22994 0.67126,0.3539 0.18769,0.12847 0.41399,0.13453 0.62413,0.19589 0.75146,0.30463 -0.73031,1.30057 -0.99653,1.62861 -0.0136,0.0167 -0.28016,0.009 -0.35607,0.0106 -0.29838,0.008 -0.59685,0.009 -0.89531,0.01 -0.23664,0.004 -0.4657,-0.0672 -0.69966,-0.097 -0.24846,-0.0123 -0.4001,-0.0182 -0.5635,-0.21397 1.28292,-1.68179 0.62367,-1.5273 1.49042,-1.4225 0.16737,0.0202 0.33131,0.0343 0.49728,0.0652 0.3303,0.0758 0.66542,0.14468 0.99124,0.23901 0.27709,0.10028 0.53487,0.24281 0.79958,0.37025 0.22479,0.0789 0.4536,0.14922 0.68366,0.21281 0.22247,0.0921 0.45695,0.14611 0.68719,0.21458 0,0 -1.08812,1.50563 -1.08812,1.50563 v 0 c -0.23023,-0.0684 -0.46421,-0.1237 -0.68847,-0.2111 -0.23715,-0.0725 -0.47727,-0.13969 -0.70554,-0.23659 -0.25327,-0.1254 -0.5029,-0.26073 -0.77133,-0.35198 -0.32143,-0.0868 -0.64505,-0.17228 -0.97279,-0.23057 -1.12697,-0.16578 -1.03109,0.33786 0.41623,-1.47128 -0.18987,-0.11314 -0.0973,-0.0458 -0.039,-0.0325 0.10855,0.0249 0.22074,0.0198 0.33015,0.0388 0.22453,0.0339 0.4464,0.0976 0.6753,0.0867 0.2954,2.7e-4 0.59113,0.002 0.88611,-0.0162 0.0543,-0.005 0.18064,-0.0143 0.23928,-0.0316 0.0236,-0.007 0.0801,-0.0523 0.0664,-0.0319 -1.01139,1.49478 -0.73746,1.62489 -1.07321,1.47698 -0.22754,-0.0555 -0.46,-0.0921 -0.65938,-0.22633 -0.21764,-0.12281 -0.44019,-0.23928 -0.66662,-0.34492 -0.84354,-0.40186 -0.53929,-0.0688 0.65592,-1.71392 0.17788,0.018 0.35837,0.005 0.53717,0.005 0.20064,-0.006 0.42474,0.006 0.60671,-0.088 -0.37132,0.47384 -0.7678,0.92899 -1.11393,1.42152 -0.0219,0.0312 0.13381,0.0593 0.11077,0.0289 -0.0474,-0.0626 -0.19258,-0.0248 -0.24764,-0.0267 -0.32443,0.0597 -0.64308,0.15008 -0.93461,0.30851 0,0 0.97449,-1.58752 0.97449,-1.58752 z"
       inkscape:connector-curvature="0" />
  </g>
</svg>
