<?xml version="1.0" encoding="UTF-8" standalone="no"?>
<!-- Created with Inkscape (http://www.inkscape.org/) -->

<svg
   xmlns:dc="http://purl.org/dc/elements/1.1/"
   xmlns:cc="http://creativecommons.org/ns#"
   xmlns:rdf="http://www.w3.org/1999/02/22-rdf-syntax-ns#"
   xmlns:svg="http://www.w3.org/2000/svg"
   xmlns="http://www.w3.org/2000/svg"
   xmlns:xlink="http://www.w3.org/1999/xlink"
   xmlns:sodipodi="http://sodipodi.sourceforge.net/DTD/sodipodi-0.dtd"
   xmlns:inkscape="http://www.inkscape.org/namespaces/inkscape"
   width="174mm"
   height="118mm"
   viewBox="0 0 174 118"
   version="1.1"
   id="svg4779"
   inkscape:version="0.92.2 (5c3e80d, 2017-08-06)"
   sodipodi:docname="mountains1.svg">
  <defs
     id="defs4773">
    <linearGradient
       inkscape:collect="always"
       id="linearGradient4959">
      <stop
         style="stop-color:#782121;stop-opacity:1;"
         offset="0"
         id="stop4955" />
      <stop
         style="stop-color:#782121;stop-opacity:0;"
         offset="1"
         id="stop4957" />
    </linearGradient>
    <linearGradient
       inkscape:collect="always"
       xlink:href="#linearGradient4959"
       id="linearGradient4961"
       x1="111.25201"
       y1="244.08333"
       x2="-24.220682"
       y2="295.4881"
       gradientUnits="userSpaceOnUse"
       gradientTransform="matrix(3.6064201,0,0,3.7795276,-93.048197,-671.86751)" />
  </defs>
  <sodipodi:namedview
     id="base"
     pagecolor="#ffffff"
     bordercolor="#666666"
     borderopacity="1.0"
     inkscape:pageopacity="0.0"
     inkscape:pageshadow="2"
     inkscape:zoom="1.4333119"
     inkscape:cx="305.12675"
     inkscape:cy="254.05698"
     inkscape:document-units="mm"
     inkscape:current-layer="layer1"
     showgrid="false"
     inkscape:pagecheckerboard="true"
     inkscape:window-width="1366"
     inkscape:window-height="705"
     inkscape:window-x="-8"
     inkscape:window-y="-8"
     inkscape:window-maximized="1"
     units="mm"
     width="53mm" />
  <metadata
     id="metadata4776">
    <rdf:RDF>
      <cc:Work
         rdf:about="">
        <dc:format>image/svg+xml</dc:format>
        <dc:type
           rdf:resource="http://purl.org/dc/dcmitype/StillImage" />
        <dc:title />
      </cc:Work>
    </rdf:RDF>
  </metadata>
  <g
     inkscape:label="Layer 1"
     inkscape:groupmode="layer"
     id="layer1"
     transform="translate(0,-179)">
    <path
       id="path4787"
       style="fill:#916f6f;fill-opacity:1;stroke-width:0.26458332"
       d="m 117.95948,204.93434 -34.857724,61.87219 c 0.098,0.40603 0.17665,0.81741 0.28216,1.22163 0.0858,0.18184 0.17929,0.36134 0.282667,0.53847 0.11484,0.27302 0.13949,0.32933 0.21032,0.49558 0.19919,0.22796 0.400287,0.45387 0.560687,0.70951 0.832644,1.32708 1.273544,2.78743 1.558551,4.30568 0.033,0.0605 0.0493,0.11276 0.0263,0.1447 0.0172,0.0947 0.0357,0.18905 0.0517,0.28422 -0.003,7.9e-4 -0.006,0.002 -0.009,0.003 0.286737,0.59966 0.563737,1.20332 0.825784,1.81178 0.816177,1.28744 2.187598,2.99681 0.833537,4.11602 0.608317,1.66445 1.225021,3.3261 1.847428,4.9842 -0.0862,0.10353 -0.169637,0.21052 -0.250627,0.31987 0.0302,0.0801 0.0623,0.15944 0.0904,0.2403 0.009,0.0254 0.0143,0.0521 0.0217,0.078 0.16808,0.24824 0.3336,0.49767 0.49506,0.74931 0.838681,0.76561 0.891781,0.91763 1.705835,2.01486 0.492347,0.92203 0.923807,1.87469 1.204564,2.87735 0.337307,0.53869 0.672097,1.07847 0.951364,1.64848 0.32451,0.66239 1.229264,1.5128 0.757047,2.07945 -0.0224,0.0269 -0.0479,0.0489 -0.0718,0.0734 -0.0204,0.0622 -0.0629,0.11448 -0.12713,0.15709 0.0163,0.0456 0.0195,0.0561 0.0367,0.10387 0.0845,0.60671 0.653567,1.36331 0.28267,1.82883 l 77.613317,-0.81856 z m -38.300903,82.3929 c 0.18375,0.17595 0.344167,0.38588 0.478007,0.62425 -0.0628,-0.20309 -0.12792,-0.40545 -0.19172,-0.60823 -0.0955,-0.006 -0.190717,-0.01 -0.286287,-0.016 z m 0.722957,1.65468 c -0.005,0.11274 -0.009,0.22562 -0.003,0.3359 -0.009,0.0592 -0.014,0.11892 -0.0217,0.17828 0.05,-0.002 0.0915,-0.004 0.140557,-0.006 -0.0388,-0.16949 -0.0775,-0.339 -0.116267,-0.50849 z m -4.732503,2.76417 c -0.0492,0.0464 -0.0978,0.0925 -0.1447,0.13849 0.0387,-0.003 0.0802,-0.0102 0.12196,-0.0165 0.007,-0.0406 0.015,-0.0814 0.0227,-0.12196 z m 5.628047,0.92708 c -0.10746,0.0149 -0.21871,0.026 -0.32298,0.0356 0.0314,0.0205 0.0636,0.0394 0.0946,0.0605 0.0927,0.063 0.20582,0.16845 0.32401,0.28784 -0.0321,-0.12793 -0.0626,-0.25623 -0.0956,-0.38395 z m -13.207905,1.15393 c -0.0653,0.004 -0.13017,0.005 -0.19534,0.009 l -0.702794,1.24798 c 0.303427,-0.41585 0.616134,-0.83992 0.898134,-1.25677 z m 3.938756,2.06654 c -0.211287,0.23614 -0.422407,0.47254 -0.627344,0.71417 -0.34462,0.4063 -0.674447,0.82485 -1.008727,1.23972 l 13.433215,-0.1416 c -0.005,-0.0306 -0.0111,-0.0577 -0.016,-0.0884 -0.0323,-8e-4 -0.0768,-0.006 -0.10232,-0.005 -0.223627,-0.0855 -0.486557,-0.104 -0.671274,-0.25631 -0.37443,-0.30872 -0.622697,-0.60873 -0.798397,-0.91571 -0.354427,0.37713 -0.941524,0.41765 -1.679991,0.61392 -0.270587,-0.0418 -0.661654,-0.17299 -0.941544,-0.0961 -0.873824,0.24007 -1.607221,0.88688 -2.571915,0.77463 -0.14034,-0.0119 -0.28169,-0.0174 -0.422717,-0.0243 -0.14405,0.031 -0.29649,0.0222 -0.468697,-0.0377 -0.0693,-0.008 -0.13814,-0.0171 -0.20671,-0.0305 -0.520967,-0.10163 -1.238684,-0.47384 -1.706861,-0.68523 -0.744794,-0.33629 -1.508581,-0.64161 -2.210708,-1.06195 z m 10.76776,0.38603 c -0.0125,0.31411 0.17705,0.85574 0.527087,1.03249 0.13517,0.0683 0.291,0.0841 0.449587,0.0915 -0.0387,-0.25635 -0.0621,-0.4152 -0.0915,-0.62374 -0.366187,-0.17874 -0.682834,-0.36466 -0.885204,-0.50022 z m -16.637657,0.6382 -0.552414,0.9803 0.347777,-0.004 c 0.007,-0.31691 0.0901,-0.64594 0.204637,-0.97669 z m 3.241132,0.67644 c -0.0604,0.0888 -0.122867,0.17643 -0.182417,0.26562 l 0.1018,-0.001 c 0.105987,-0.0873 0.193907,-0.10413 0.0806,-0.26458 z"
       inkscape:connector-curvature="0" />
    <path
       id="path4789"
       transform="matrix(0.26458333,0,0,0.26458333,0,179)"
       style="fill:url(#linearGradient4961);fill-opacity:1;stroke-width:0.97683084"
       d="M 240.30664,18.726562 0.55273438,447.34961 476.74414,450.65234 255.28711,42.453125 c 0.51504,1.25212 1.03152,2.575013 -0.58399,1.855469 -0.22717,-0.101292 -0.47107,-0.170451 -0.68164,-0.302735 -2.00381,-1.259414 1.05945,0.181177 -1.38867,-1.205078 -0.17563,-0.412573 -0.35958,-0.822457 -0.52734,-1.238281 -0.0359,-0.08958 0.22306,0.314752 0.17578,0.230469 -0.11244,-0.199937 -0.28865,-0.364695 -0.37305,-0.578125 -0.47879,-1.209676 -0.39591,-1.075764 -0.3164,-2.119141 0.0181,-0.110362 0.0284,-0.223559 0.0547,-0.332031 0.0106,-0.04346 0.10066,-0.04915 0.0957,-0.09375 -0.0466,-0.414954 -0.50494,-0.715528 -0.4375,-1.136719 -0.10908,-0.168098 -0.1651,-0.276979 -0.1875,-0.341797 0,0 -0.002,-0.002 -0.002,-0.002 -0.13607,-0.105246 -0.15319,-0.09917 -0.39648,-0.304687 -0.11255,-0.09524 0.48424,0.33176 0.37695,0.230468 -0.30705,-0.289133 -1.01231,-0.387935 -0.95898,-0.826172 -0.19623,-0.281573 -0.39166,-0.562212 -0.58789,-0.84375 0.0295,4.92e-4 0.094,0.03064 0.0879,0.002 -0.0155,-0.07257 -0.20088,-0.177484 -0.12695,-0.181641 0.12181,-0.0076 0.41323,0.253449 0.32421,0.169922 -1.29086,-1.209714 -0.8282,-0.413437 -1.19726,-1.105469 -0.15916,-0.303496 -0.31937,-0.606773 -0.47852,-0.910156 0.0181,-0.03402 0.0699,-0.06881 0.0547,-0.105469 -0.13648,-0.329953 -0.32399,-0.637688 -0.4668,-0.964844 -0.11153,-0.255496 -0.38045,-0.473666 -0.36328,-0.751953 0.009,-0.140598 0.26806,0.08462 0.40235,0.126953 -0.15203,-0.133094 -1.06349,-0.788809 -1.21094,-1.257812 -0.1873,-0.113982 -0.36801,-0.228509 -0.32422,-0.394531 -0.79694,-0.402929 -1.29249,-0.452555 -1.54102,-1.423828 -0.15038,-0.126003 -0.29556,-0.257909 -0.44336,-0.386719 -0.1741,-0.34597 -0.28821,-0.605853 -0.40429,-0.978516 -1.02561,-0.493412 -1.18477,-0.671549 -1.53516,-2.318359 -0.0294,-0.137249 0.12675,-0.590242 0.13867,-0.617188 -0.0215,-0.01815 -0.0398,-0.02489 -0.0605,-0.04492 -1.1979,-1.157518 -1.22095,-0.871488 -1.41211,-2.492187 -0.0152,-0.128932 0.0162,-0.256323 0.0449,-0.384766 -0.31878,-0.886426 -0.45497,-1.799427 -0.73047,-2.699219 z m 2.24219,5.683594 c 0.0154,0.03534 0.0293,0.07599 0.0488,0.103516 0.0763,0.05745 0.13939,0.206647 0.22851,0.171875 0.1032,-0.04018 -0.0809,-0.131562 -0.27734,-0.275391 z m 1.41797,2.925782 c 0.004,0.006 0.009,0.01834 0.0137,0.02344 0.0689,0.02439 0.1395,0.04891 0.35156,0.154297 -0.15474,-0.07391 -0.23846,-0.117442 -0.36523,-0.177734 z m 0.9375,1.482421 c 0.0542,0.08555 0.11057,0.184346 0.15429,0.228516 0.0652,0.06576 0.31385,0.188433 0.24805,0.123047 -0.12656,-0.125272 -0.26737,-0.235394 -0.40234,-0.351563 z" />
    <path
       sodipodi:type="star"
       style="fill:#ffffff;stroke-width:0.26458332"
       id="path4867"
       sodipodi:sides="3"
       sodipodi:cx="90.089874"
       sodipodi:cy="214.44904"
       sodipodi:r1="32.541092"
       sodipodi:r2="16.270548"
       sodipodi:arg1="2.6051572"
       sodipodi:arg2="3.6523547"
       inkscape:flatsided="true"
       inkscape:rounded="0"
       inkscape:randomized="0"
       d="M 62.119638,231.07999 89.672166,181.91062 118.47782,230.3565 Z"
       inkscape:transform-center-x="-0.15842825"
       inkscape:transform-center-y="-6.3640364"
       transform="matrix(0.75855958,0,0,0.80013202,-4.8833661,36.887276)" />
    <ellipse
       style="fill:#ffffff;stroke-width:0.26458332"
       id="path4871"
       cx="67.733307"
       cy="228.96429"
       rx="12.095239"
       ry="12.851191" />
    <ellipse
       style="fill:#ffffff;stroke-width:0.26458332"
       id="path4873"
       cx="50.132576"
       cy="227.07864"
       rx="9.3836346"
       ry="9.9034595" />
    <ellipse
       style="fill:#ffffff;stroke-width:0.26458332"
       id="path4875"
       cx="78.014282"
       cy="224.95773"
       rx="7.9375"
       ry="7.5595236" />
    <path
       id="path4881"
       style="fill:#e3dedb;stroke-width:0.26458332"
       d="m 118.48865,203.87593 -18.11776,31.05805 c -0.006,0.0501 -0.0173,0.10086 -0.0444,0.154 0.003,0.0331 0.004,0.0665 -0.004,0.0992 0.004,0.0464 0.007,0.0866 0.009,0.11369 l 36.17453,0.16227 c -0.0104,-0.0261 -0.0242,-0.0575 -0.031,-0.10232 -0.0339,-0.0393 -0.0585,-0.0907 -0.0786,-0.1447 z"
       inkscape:connector-curvature="0" />
    <path
       id="path4891"
       style="fill:#e3dedb;stroke-width:0.26458332"
       d="m 100.32645,235.08746 c -8e-5,1.6e-4 8e-5,2.6e-4 0,5.3e-4 0.003,0.0331 0.004,0.0665 -0.004,0.0992 0.005,0.0582 0.0108,0.12877 0.0109,0.14263 -0.003,0.11599 0.007,0.0596 -0.0956,0.22634 -0.002,0.003 -0.006,0.005 -0.009,0.008 0.003,0.0453 0.01,0.14457 -0.005,0.14728 -0.002,2.7e-4 -0.002,2.3e-4 -0.004,5.3e-4 a 13.229165,13.985118 0 0 0 6.58151,11.48664 13.229165,13.985118 0 0 0 13.22917,0 13.229165,13.985118 0 0 0 6.61458,-12.11141 h -13.22916 z"
       inkscape:connector-curvature="0" />
    <path
       id="path4893"
       style="fill:#e3dedb;stroke-width:0.26458332"
       d="m 115.45214,235.40217 a 10.583333,10.961307 0 0 0 5.29167,9.49244 10.583333,10.961307 0 0 0 10.58333,0 10.583333,10.961307 0 0 0 5.2834,-9.31571 c -0.0273,-0.0161 -0.0565,-0.0379 -0.0941,-0.0791 -0.004,-0.004 -0.0179,-0.055 -0.0295,-0.0977 h -10.45155 z"
       inkscape:connector-curvature="0" />
    <path
       style="fill:#e3dedb;stroke-width:0.26458332"
       id="path5129"
       d="m 125.45658,233.3727 c 0.45876,0.0544 0.90992,0.14804 1.35935,0.25318 0.35911,0.0843 0.7247,0.12048 1.08453,0.19966 0.28189,0.0647 0.57037,0.0839 0.85845,0.0945 0.28617,0.0595 0.57371,0.10536 0.865,0.12931 0.30683,-0.009 0.5938,0.0735 0.8819,0.16715 0.27763,0.0928 0.56849,0.11831 0.85872,0.13409 0.32302,0.0121 0.64634,0.01 0.96951,0.008 0.29381,-0.001 0.58763,-0.002 0.88145,-0.002 0.25224,-0.006 0.49575,-0.0844 0.74755,-0.11415 0.29849,-0.0497 0.52528,-0.005 0.71239,0.24082 0.12026,0.18924 0.20497,0.39436 0.32242,0.58571 0.0209,0.0395 0.0418,0.079 0.0627,0.11853 0,0 -1.38803,1.62225 -1.38803,1.62225 v 0 c -0.0165,-0.0355 -0.0329,-0.0709 -0.0494,-0.10637 -0.11537,-0.19115 -0.22073,-0.3794 -0.31979,-0.57824 -0.0955,-0.20147 -0.33366,-0.11896 -0.51559,-0.10069 -0.2557,0.0415 -0.50846,0.11227 -0.77011,0.0951 -0.29349,2.7e-4 -0.58698,8e-4 -0.88047,8e-4 -0.32645,-8e-4 -0.65306,-0.001 -0.97921,-0.0168 -0.30681,-0.0197 -0.6113,-0.0627 -0.90339,-0.1632 -0.27625,-0.0868 -0.55442,-0.13634 -0.84508,-0.13941 -0.28759,-0.03 -0.57047,-0.0862 -0.8569,-0.12349 -0.29814,-0.0166 -0.59553,-0.0466 -0.88637,-0.11754 -0.35823,-0.0782 -0.72391,-0.11716 -1.07826,-0.21463 -0.44665,-0.10725 -0.89817,-0.1886 -1.35684,-0.22334 0,0 1.22543,-1.74925 1.22543,-1.74925 z"
       inkscape:connector-curvature="0" />
  </g>
</svg>
