<?xml version="1.0" encoding="UTF-8" standalone="no"?>
<!-- Created with Inkscape (http://www.inkscape.org/) -->

<svg
   xmlns:dc="http://purl.org/dc/elements/1.1/"
   xmlns:cc="http://creativecommons.org/ns#"
   xmlns:rdf="http://www.w3.org/1999/02/22-rdf-syntax-ns#"
   xmlns:svg="http://www.w3.org/2000/svg"
   xmlns="http://www.w3.org/2000/svg"
   xmlns:xlink="http://www.w3.org/1999/xlink"
   xmlns:sodipodi="http://sodipodi.sourceforge.net/DTD/sodipodi-0.dtd"
   xmlns:inkscape="http://www.inkscape.org/namespaces/inkscape"
   width="226mm"
   height="118mm"
   viewBox="0 0 226 118"
   version="1.1"
   id="svg4779"
   inkscape:version="0.92.2 (5c3e80d, 2017-08-06)"
   sodipodi:docname="mountains.svg">
  <defs
     id="defs4773">
    <linearGradient
       inkscape:collect="always"
       id="linearGradient4959">
      <stop
         style="stop-color:#782121;stop-opacity:1;"
         offset="0"
         id="stop4955" />
      <stop
         style="stop-color:#782121;stop-opacity:0;"
         offset="1"
         id="stop4957" />
    </linearGradient>
    <linearGradient
       inkscape:collect="always"
       id="linearGradient4951">
      <stop
         style="stop-color:#d35f5f;stop-opacity:1;"
         offset="0"
         id="stop4947" />
      <stop
         style="stop-color:#d35f5f;stop-opacity:0;"
         offset="1"
         id="stop4949" />
    </linearGradient>
    <linearGradient
       inkscape:collect="always"
       xlink:href="#linearGradient4951"
       id="linearGradient4953"
       x1="173.86905"
       y1="253.15475"
       x2="170.08928"
       y2="330.2619"
       gradientUnits="userSpaceOnUse"
       gradientTransform="matrix(3.7795274,0,0,3.7795274,0,-676.53543)" />
    <linearGradient
       inkscape:collect="always"
       xlink:href="#linearGradient4959"
       id="linearGradient4961"
       x1="111.25201"
       y1="244.08333"
       x2="-24.220682"
       y2="295.4881"
       gradientUnits="userSpaceOnUse"
       gradientTransform="matrix(0.95419864,0,0,1,1.1133332,1.2848876)" />
  </defs>
  <sodipodi:namedview
     id="base"
     pagecolor="#ffffff"
     bordercolor="#666666"
     borderopacity="1.0"
     inkscape:pageopacity="0.0"
     inkscape:pageshadow="2"
     inkscape:zoom="0.64975936"
     inkscape:cx="340.28638"
     inkscape:cy="153.32368"
     inkscape:document-units="mm"
     inkscape:current-layer="layer1"
     showgrid="false"
     inkscape:pagecheckerboard="true"
     inkscape:window-width="1366"
     inkscape:window-height="705"
     inkscape:window-x="-8"
     inkscape:window-y="-8"
     inkscape:window-maximized="1"
     units="mm"
     width="53mm" />
  <metadata
     id="metadata4776">
    <rdf:RDF>
      <cc:Work
         rdf:about="">
        <dc:format>image/svg+xml</dc:format>
        <dc:type
           rdf:resource="http://purl.org/dc/dcmitype/StillImage" />
        <dc:title></dc:title>
      </cc:Work>
    </rdf:RDF>
  </metadata>
  <g
     inkscape:label="Layer 1"
     inkscape:groupmode="layer"
     id="layer1"
     transform="translate(0,-179)">
    <path
       id="path4787"
       transform="matrix(0.26458333,0,0,0.26458333,0,179)"
       style="fill:url(#linearGradient4953);fill-opacity:1;stroke-width:0.99999994"
       d="M 591.83203,96.019531 460.08594,329.86719 c 0.37038,1.53461 0.66765,3.08944 1.0664,4.61719 0.3242,0.68727 0.67765,1.36568 1.06836,2.03515 0.43404,1.03189 0.52724,1.24471 0.79492,1.87305 0.75287,0.86161 1.51292,1.71544 2.11915,2.68164 3.14702,5.01573 4.81341,10.53516 5.89062,16.27344 0.1246,0.22849 0.18647,0.42615 0.0996,0.54687 0.0648,0.3581 0.13473,0.71453 0.19531,1.07422 -0.0111,0.003 -0.022,0.007 -0.0332,0.01 1.08372,2.26641 2.13064,4.54796 3.12109,6.84765 3.08478,4.86593 8.26812,11.32655 3.15039,15.55664 2.29917,6.29081 4.63004,12.57108 6.98243,18.83789 -0.32595,0.39129 -0.64113,0.79568 -0.94727,1.20899 0.11415,0.30277 0.23539,0.60259 0.3418,0.9082 0.0334,0.096 0.0539,0.19687 0.082,0.29492 0.63529,0.93823 1.26088,1.88094 1.87109,2.83203 3.16984,2.89364 3.37052,3.46823 6.44727,7.61524 1.86087,3.48481 3.49157,7.08542 4.55273,10.875 1.27488,2.03601 2.54021,4.07613 3.59571,6.23047 1.22652,2.50352 4.64609,5.7177 2.86132,7.85937 -0.0848,0.10176 -0.18105,0.18481 -0.27148,0.27735 -0.077,0.23504 -0.23762,0.43268 -0.48047,0.59375 0.0617,0.17245 0.0738,0.2119 0.13867,0.39257 0.31955,2.29307 2.47017,5.15266 1.06836,6.91211 l 293.3418,-3.09375 z M 447.07227,407.42578 c 0.69449,0.665 1.3008,1.45846 1.80664,2.35938 -0.23726,-0.76758 -0.48349,-1.5324 -0.72461,-2.29883 -0.36096,-0.0217 -0.72085,-0.0378 -1.08203,-0.0606 z m 2.73242,6.25391 c -0.0179,0.42609 -0.0343,0.85272 -0.01,1.26953 -0.033,0.22385 -0.0531,0.44947 -0.082,0.67383 0.18894,-0.007 0.34599,-0.014 0.53125,-0.0215 -0.14657,-0.64061 -0.29288,-1.28126 -0.43945,-1.92187 z m -17.88672,10.44726 c -0.18595,0.17538 -0.36979,0.34944 -0.54688,0.52344 0.14642,-0.0119 0.30306,-0.0386 0.46094,-0.0625 0.0277,-0.15357 0.0567,-0.30757 0.0859,-0.46094 z m 21.27148,3.50391 c -0.40615,0.0563 -0.82661,0.0984 -1.2207,0.13476 0.11856,0.0773 0.24031,0.14894 0.35742,0.22852 0.35026,0.238 0.77791,0.63666 1.22461,1.08789 -0.12137,-0.48352 -0.2367,-0.96844 -0.36133,-1.45117 z m -49.91992,4.36133 c -0.24693,0.0164 -0.49196,0.0206 -0.73828,0.0332 l -2.65625,4.7168 c 1.14682,-1.57171 2.32872,-3.1745 3.39453,-4.75 z m 14.88672,7.81054 c -0.79858,0.8925 -1.5965,1.78596 -2.37109,2.69922 -1.30247,1.53562 -2.54908,3.11754 -3.8125,4.68555 l 50.77148,-0.53516 c -0.0192,-0.11555 -0.0418,-0.21792 -0.0606,-0.33398 -0.12198,-0.003 -0.29015,-0.0223 -0.38671,-0.0176 -0.84522,-0.32315 -1.83896,-0.39309 -2.53711,-0.96875 -1.41518,-1.16682 -2.3535,-2.3007 -3.01758,-3.46094 -1.33956,1.42537 -3.55853,1.57853 -6.34961,2.32032 -1.0227,-0.15799 -2.50074,-0.65381 -3.5586,-0.36329 -3.30266,0.90736 -6.07459,3.35199 -9.7207,2.92774 -0.53041,-0.0448 -1.06464,-0.0657 -1.59766,-0.0918 -0.54446,0.117 -1.12062,0.0838 -1.77148,-0.14258 -0.26174,-0.032 -0.52209,-0.0647 -0.78125,-0.11523 -1.96902,-0.38411 -4.68167,-1.79089 -6.45117,-2.58984 -2.81498,-1.271 -5.70177,-2.42497 -8.35547,-4.01368 z m 40.69727,1.45899 c -0.0473,1.18719 0.66918,3.2343 1.99218,3.90234 0.51087,0.25795 1.09983,0.318 1.69922,0.34571 -0.14629,-0.96889 -0.23471,-1.56925 -0.3457,-2.35743 -1.38405,-0.67557 -2.58082,-1.37824 -3.3457,-1.89062 z m -62.88282,2.41211 -2.08789,3.70508 1.31446,-0.0137 c 0.0266,-1.19777 0.34063,-2.44132 0.77343,-3.6914 z m 12.25,2.55664 c -0.2281,0.33548 -0.46437,0.6668 -0.68945,1.00391 l 0.38477,-0.004 c 0.40057,-0.32989 0.73287,-0.39357 0.30468,-1 z" />
    <path
       id="path4789"
       style="fill:url(#linearGradient4961);fill-opacity:1;stroke-width:0.25845316"
       d="M 89.596655,183.49813 25.878581,297.41106 151.87089,298.28493 Z"
       inkscape:connector-curvature="0" />
    <path
       sodipodi:type="star"
       style="fill:#ffffff;stroke-width:0.26458332"
       id="path4867"
       sodipodi:sides="3"
       sodipodi:cx="90.089874"
       sodipodi:cy="214.44904"
       sodipodi:r1="32.541092"
       sodipodi:r2="16.270548"
       sodipodi:arg1="2.6051572"
       sodipodi:arg2="3.6523547"
       inkscape:flatsided="true"
       inkscape:rounded="0"
       inkscape:randomized="0"
       d="M 62.119638,231.07999 89.672166,181.91062 118.47782,230.3565 Z"
       inkscape:transform-center-x="-0.15842825"
       inkscape:transform-center-y="-6.3640364"
       transform="matrix(0.75855958,0,0,0.80013202,21.045808,36.358109)" />
    <ellipse
       style="fill:#ffffff;stroke-width:0.26458332"
       id="path4871"
       cx="89.958328"
       cy="228.96429"
       rx="12.095239"
       ry="12.851191" />
    <ellipse
       style="fill:#ffffff;stroke-width:0.26458332"
       id="path4873"
       cx="75.831024"
       cy="227.01097"
       rx="9.3836346"
       ry="9.9034595" />
    <ellipse
       style="fill:#ffffff;stroke-width:0.26458332"
       id="path4875"
       cx="103.94345"
       cy="224.42857"
       rx="7.9375"
       ry="7.5595236" />
    <path
       id="path4881"
       transform="scale(0.26458333)"
       style="fill:#ffffff;stroke-width:0.99999994"
       d="m 593.83203,768.55469 -68.47656,117.38476 c -0.0237,0.18941 -0.0654,0.38122 -0.16797,0.58203 0.0107,0.12497 0.0163,0.25117 -0.0156,0.375 0.0144,0.17525 0.0266,0.32716 0.0332,0.42969 l 136.72265,0.61328 c -0.0394,-0.0988 -0.0913,-0.21715 -0.11718,-0.38672 -0.12828,-0.14853 -0.22098,-0.34276 -0.29688,-0.54687 z"
       inkscape:connector-curvature="0" />
    <path
       id="path4891"
       transform="scale(0.26458333)"
       style="fill:#ffffff;stroke-width:0.99999994"
       d="m 525.1875,886.51953 c -3e-4,6e-4 3e-4,10e-4 0,0.002 0.0107,0.12497 0.0163,0.25117 -0.0156,0.375 0.0181,0.21983 0.0408,0.4867 0.041,0.53907 -0.0113,0.43842 0.0257,0.22512 -0.36133,0.85547 -0.008,0.013 -0.0231,0.02 -0.0332,0.0312 0.0118,0.17112 0.0372,0.54638 -0.0176,0.55664 -0.006,10e-4 -0.008,8.8e-4 -0.0137,0.002 a 49.999996,52.85714 0 0 0 24.875,43.41406 49.999996,52.85714 0 0 0 50,0 49.999996,52.85714 0 0 0 25,-45.77539 h -50 z"
       inkscape:connector-curvature="0" />
    <path
       id="path4893"
       transform="scale(0.26458333)"
       style="fill:#ffffff;stroke-width:0.99999994"
       d="m 582.35547,887.70898 a 39.999999,41.428564 0 0 0 20,35.87696 39.999999,41.428564 0 0 0 40,0 39.999999,41.428564 0 0 0 19.96875,-35.20899 c -0.10329,-0.0607 -0.2134,-0.14328 -0.35547,-0.29883 -0.0147,-0.0165 -0.0678,-0.20802 -0.11133,-0.36914 h -39.50195 z"
       inkscape:connector-curvature="0" />
    <path
       style="fill:#ffffff;stroke-width:0.26458332"
       id="path5129"
       d="m 165.14433,233.3727 c 0.45876,0.0544 0.90992,0.14804 1.35935,0.25318 0.35911,0.0843 0.7247,0.12048 1.08453,0.19966 0.28189,0.0647 0.57037,0.0839 0.85845,0.0945 0.28617,0.0595 0.57371,0.10536 0.865,0.12931 0.30683,-0.009 0.5938,0.0735 0.8819,0.16715 0.27763,0.0928 0.56849,0.11831 0.85872,0.13409 0.32302,0.0121 0.64634,0.01 0.96951,0.008 0.29381,-0.001 0.58763,-0.002 0.88145,-0.002 0.25224,-0.006 0.49575,-0.0844 0.74755,-0.11415 0.29849,-0.0497 0.52528,-0.005 0.71239,0.24082 0.12026,0.18924 0.20497,0.39436 0.32242,0.58571 0.0209,0.0395 0.0418,0.079 0.0627,0.11853 0,0 -1.38803,1.62225 -1.38803,1.62225 v 0 c -0.0165,-0.0355 -0.0329,-0.0709 -0.0494,-0.10637 -0.11537,-0.19115 -0.22073,-0.3794 -0.31979,-0.57824 -0.0955,-0.20147 -0.33366,-0.11896 -0.51559,-0.10069 -0.2557,0.0415 -0.50846,0.11227 -0.77011,0.0951 -0.29349,2.7e-4 -0.58698,8e-4 -0.88047,8e-4 -0.32645,-8e-4 -0.65306,-0.001 -0.97921,-0.0168 -0.30681,-0.0197 -0.6113,-0.0627 -0.90339,-0.1632 -0.27625,-0.0868 -0.55442,-0.13634 -0.84508,-0.13941 -0.28759,-0.03 -0.57047,-0.0862 -0.8569,-0.12349 -0.29814,-0.0166 -0.59553,-0.0466 -0.88637,-0.11754 -0.35823,-0.0782 -0.72391,-0.11716 -1.07826,-0.21463 -0.44665,-0.10725 -0.89817,-0.1886 -1.35684,-0.22334 0,0 1.22543,-1.74925 1.22543,-1.74925 z"
       inkscape:connector-curvature="0" />
  </g>
</svg>
