<?xml version="1.0" encoding="UTF-8" standalone="no"?>
<!-- Created with Inkscape (http://www.inkscape.org/) -->

<svg
   xmlns:dc="http://purl.org/dc/elements/1.1/"
   xmlns:cc="http://creativecommons.org/ns#"
   xmlns:rdf="http://www.w3.org/1999/02/22-rdf-syntax-ns#"
   xmlns:svg="http://www.w3.org/2000/svg"
   xmlns="http://www.w3.org/2000/svg"
   xmlns:xlink="http://www.w3.org/1999/xlink"
   xmlns:sodipodi="http://sodipodi.sourceforge.net/DTD/sodipodi-0.dtd"
   xmlns:inkscape="http://www.inkscape.org/namespaces/inkscape"
   width="210mm"
   height="297mm"
   viewBox="0 0 210 297"
   version="1.1"
   id="svg8"
   sodipodi:docname="small-star.svg"
   inkscape:version="0.92.2 (5c3e80d, 2017-08-06)">
  <defs
     id="defs2">
    <inkscape:path-effect
       effect="bspline"
       id="path-effect3797"
       is_visible="true"
       weight="33.333333"
       steps="2"
       helper_size="0"
       apply_no_weight="true"
       apply_with_weight="true"
       only_selected="false" />
    <linearGradient
       inkscape:collect="always"
       id="linearGradient3787">
      <stop
         style="stop-color:#000080;stop-opacity:1;"
         offset="0"
         id="stop3783" />
      <stop
         style="stop-color:#000080;stop-opacity:0;"
         offset="1"
         id="stop3785" />
    </linearGradient>
    <linearGradient
       inkscape:collect="always"
       id="linearGradient3777">
      <stop
         style="stop-color:#800080;stop-opacity:1;"
         offset="0"
         id="stop3773" />
      <stop
         style="stop-color:#800080;stop-opacity:0;"
         offset="1"
         id="stop3775" />
    </linearGradient>
    <linearGradient
       inkscape:collect="always"
       xlink:href="#linearGradient3777"
       id="linearGradient3779"
       x1="138.23413"
       y1="193.8315"
       x2="135.38956"
       y2="321.74512"
       gradientUnits="userSpaceOnUse" />
    <linearGradient
       inkscape:collect="always"
       xlink:href="#linearGradient3787"
       id="linearGradient3789"
       x1="54.433891"
       y1="204.78304"
       x2="52.551888"
       y2="303.04761"
       gradientUnits="userSpaceOnUse" />
    <linearGradient
       inkscape:collect="always"
       xlink:href="#linearGradient3777"
       id="linearGradient4699"
       gradientUnits="userSpaceOnUse"
       x1="138.23413"
       y1="193.8315"
       x2="135.38956"
       y2="321.74512"
       gradientTransform="matrix(4.3311744,0,0,3.8232522,-112.0558,-47.592981)" />
  </defs>
  <sodipodi:namedview
     id="base"
     pagecolor="#ffffff"
     bordercolor="#666666"
     borderopacity="1.0"
     inkscape:pageopacity="0.0"
     inkscape:pageshadow="2"
     inkscape:zoom="0.35"
     inkscape:cx="400"
     inkscape:cy="560"
     inkscape:document-units="mm"
     inkscape:current-layer="layer1"
     showgrid="false"
     inkscape:window-width="1366"
     inkscape:window-height="705"
     inkscape:window-x="-8"
     inkscape:window-y="-8"
     inkscape:window-maximized="1"
     inkscape:pagecheckerboard="true" />
  <metadata
     id="metadata5">
    <rdf:RDF>
      <cc:Work
         rdf:about="">
        <dc:format>image/svg+xml</dc:format>
        <dc:type
           rdf:resource="http://purl.org/dc/dcmitype/StillImage" />
        <dc:title></dc:title>
      </cc:Work>
    </rdf:RDF>
  </metadata>
  <g
     inkscape:label="Layer 1"
     inkscape:groupmode="layer"
     id="layer1">
    <path
       id="path3751"
       transform="scale(0.26458333)"
       style="fill:url(#linearGradient4699);fill-opacity:1;stroke-width:1.0766679"
       d="M 477.69531,616.33008 147.83398,1111.3066 798.375,1115.9863 Z" />
    <path
       sodipodi:type="star"
       style="fill:url(#linearGradient3789);stroke-width:0.26458332;fill-opacity:1"
       id="path3781"
       sodipodi:sides="3"
       sodipodi:cx="54.42857"
       sodipodi:cy="266.7619"
       sodipodi:r1="61.978874"
       sodipodi:r2="30.989435"
       sodipodi:arg1="0.52368466"
       sodipodi:arg2="1.5708822"
       inkscape:flatsided="true"
       inkscape:rounded="0"
       inkscape:randomized="0"
       d="M 108.10119,297.75595 0.75062892,297.74673 54.433893,204.78303 Z"
       inkscape:transform-center-x="0.0026806828"
       inkscape:transform-center-y="-15.492416"
       transform="matrix(1.0070419,0,0,1,-0.00528586,0)" />
    <path
       style="fill:#ffffff;stroke-width:0.26458332"
       id="path4551"
       sodipodi:type="arc"
       sodipodi:cx="114.14067"
       sodipodi:cy="194.03395"
       sodipodi:rx="6.8035712"
       sodipodi:ry="6.8035712"
       sodipodi:start="0"
       sodipodi:end="6.2191666"
       d="m 120.94424,194.03395 a 6.8035712,6.8035712 0 0 1 -6.69468,6.8027 6.8035712,6.8035712 0 0 1 -6.90898,-6.58496 6.8035712,6.8035712 0 0 1 6.47355,-7.01347 6.8035712,6.8035712 0 0 1 7.11617,6.36047 l -6.78963,0.43526 z" />
    <path
       id="path4553"
       transform="scale(0.26458333)"
       style="fill:#ffffff;stroke-width:0.99999994"
       d="m 520.68945,707.48828 a 30.026316,27.965404 0 0 0 -1.64257,0.0312 30.026316,27.965404 0 0 0 -28.56836,28.82813 30.026316,27.965404 0 0 0 30.49023,27.0664 30.026316,27.965404 0 0 0 29.54687,-27.96289 h -30.02734 l 29.96484,-1.78906 a 30.026316,27.965404 0 0 0 -29.76367,-26.17383 z" />
    <path
       id="path4555"
       transform="scale(0.26458333)"
       style="fill:#ffffff;stroke-width:0.99999994"
       d="m 475.54883,709.72852 a 31.459318,32.020118 0 0 0 -29.9336,33.00781 31.459318,32.020118 0 0 0 31.94727,30.99023 31.459318,32.020118 0 0 0 30.95703,-32.01562 h -31.46094 l 31.39649,-2.04883 a 31.459318,32.020118 0 0 0 -32.90625,-29.93359 z" />
    <path
       id="path4557"
       transform="scale(0.26458333)"
       style="fill:#ffffff;stroke-width:0.99999994"
       d="m 476.88867,671.2832 c -11.96919,8.66903 -23.93904,17.33875 -35.9082,26.00782 -4.44136,3.28622 -7.39421,7.11675 -8.63477,12.61328 -1.355,5.29969 -2.159,10.59867 -1.47461,16.08593 0.50276,5.43489 1.24008,10.97606 5.81641,14.57618 8.80418,4.27847 21.45412,-2.48002 31.35156,-10.63086 3.03366,2.25705 6.19051,4.11868 10.29688,3.90039 5.08981,0.42969 10.01808,1.29069 14.42773,4.06445 6.4088,3.48125 13.51469,5.15248 20.07617,8.29297 l 33.07813,-26.54102 c -6.62007,-2.97596 -13.6443,-4.88418 -20.14063,-8.14062 -4.71809,-2.96334 -9.89669,-4.49591 -15.35546,-5.30469 -4.54787,0.0843 -7.85655,-1.44203 -11.32422,-4.16015 -4.14705,-1.9815 -5.26491,-5.03239 -6.88282,-8.9961 -1.35647,-4.95315 -2.88686,-9.83784 -4.26953,-14.78906 -4.53525,-15.61173 -19.82225,3.06317 -30.45703,15.11133 -3.55286,2.59355 -7.10534,5.18769 -10.6582,7.78125 z m -1.3789,8.93555 c -0.9427,0.68816 -1.88543,1.37629 -2.82813,2.06445 0.88569,-0.73033 1.85164,-1.39559 2.82813,-2.06445 z m -28.53125,52.88086 c -0.21471,0.4289 -0.45341,0.8507 -0.74805,1.25586 -7.28689,4.34632 -6.48672,3.86077 0.74805,-1.25586 z" />
    <path
       id="path4561"
       transform="scale(0.26458333)"
       style="fill:#ffffff;stroke-width:0.91805071"
       d="m 477.69531,612.33008 -77.29101,120.04687 153.77929,0.41797 z" />
    <path
       sodipodi:type="star"
       style="fill:#ffffff;stroke-width:0.26458332"
       id="path4571"
       sodipodi:sides="3"
       sodipodi:cx="54.811924"
       sodipodi:cy="224.43778"
       sodipodi:r1="20.669106"
       sodipodi:r2="10.334553"
       sodipodi:arg1="0.53703471"
       sodipodi:arg2="1.5842323"
       inkscape:flatsided="true"
       inkscape:rounded="0"
       inkscape:randomized="0"
       d="M 72.571429,235.01189 36.774719,234.5309 55.089624,203.77053 Z"
       inkscape:transform-center-x="0.13885089"
       inkscape:transform-center-y="-5.0465644" />
    <ellipse
       style="fill:#ffffff;stroke-width:0.26458332"
       id="path4666"
       cx="47.358063"
       cy="237.1767"
       rx="10.583333"
       ry="10.961308" />
    <path
       style="fill:#ffffff;stroke-width:0.26458332"
       id="path4668"
       sodipodi:type="arc"
       sodipodi:cx="63.575584"
       sodipodi:cy="235.01189"
       sodipodi:rx="8.3154678"
       sodipodi:ry="8.1264896"
       sodipodi:start="0"
       sodipodi:end="6.2191666"
       d="m 71.891052,235.01189 a 8.3154678,8.1264896 0 0 1 -8.182387,8.12545 8.3154678,8.1264896 0 0 1 -8.444289,-7.86537 8.3154678,8.1264896 0 0 1 7.912103,-8.37721 8.3154678,8.1264896 0 0 1 8.697539,7.59723 l -8.298434,0.5199 z" />
    <path
       id="path4670"
       transform="scale(0.26458333)"
       style="fill:#ffffff;stroke-width:0.99999994"
       d="m 519.85547,701.20508 -25.7793,33.54687 c 3.50994,2.26349 6.98903,4.58138 10.38867,7.00391 6.08383,4.47681 11.45198,9.87235 17.90821,13.84766 l 25.4375,-33.9336 c -6.50895,-3.42467 -11.63407,-8.79759 -17.45703,-13.20312 -3.46307,-2.47261 -6.96646,-4.88561 -10.49805,-7.26172 z" />
    <path
       id="path4672"
       transform="scale(0.26458333)"
       style="fill:#ffffff;stroke-width:0.99999994"
       d="m 514.90234,708.47656 -24.25586,34.72266 c 3.20845,0.34333 1.62827,0.12831 4.74414,0.64062 5.08903,1.2344 9.77705,3.6082 14.625,5.5293 7.0876,3.79502 14.18981,7.54928 20.92969,11.94922 l 25.4375,-33.93359 c -7.04795,-3.7516 -13.98366,-7.72196 -20.93164,-11.66211 -5.01165,-2.30366 -10.01834,-4.72956 -15.32226,-6.29493 -3.44958,-0.74396 -1.70715,-0.42498 -5.22657,-0.95117 z" />
  </g>
</svg>
